<svg width="117" height="96" viewBox="0 0 117 96" fill="none" xmlns="http://www.w3.org/2000/svg">
<mask id="path-1-outside-1_2002_258" maskUnits="userSpaceOnUse" x="-3" y="-3" width="123" height="102" fill="black">
<rect fill="white" x="-3" y="-3" width="123" height="102"/>
<path d="M38.088 95.056C30.784 95.056 24.272 93.208 18.552 89.512C12.92 85.728 8.476 80.272 5.22 73.144C1.964 66.016 0.336 57.568 0.336 47.8C0.336 38.032 1.964 29.584 5.22 22.456C8.476 15.328 12.92 9.916 18.552 6.22C24.272 2.436 30.784 0.543999 38.088 0.543999C45.304 0.543999 51.728 2.436 57.36 6.22C63.08 9.916 67.568 15.328 70.824 22.456C74.08 29.584 75.708 38.032 75.708 47.8C75.708 57.568 74.08 66.016 70.824 73.144C67.568 80.272 63.08 85.728 57.36 89.512C51.728 93.208 45.304 95.056 38.088 95.056ZM38.088 83.308C45.48 83.308 51.376 80.272 55.776 74.2C60.264 68.128 62.508 59.328 62.508 47.8C62.508 36.272 60.264 27.472 55.776 21.4C51.376 15.328 45.48 12.292 38.088 12.292C30.608 12.292 24.624 15.328 20.136 21.4C15.736 27.472 13.536 36.272 13.536 47.8C13.536 59.328 15.736 68.128 20.136 74.2C24.624 80.272 30.608 83.308 38.088 83.308ZM116.636 1.59999V94H103.568V13.084H82.7123V1.59999H116.636Z"/>
</mask>
<path d="M18.552 89.512L16.8789 92.0022L16.9013 92.0172L16.9239 92.0318L18.552 89.512ZM5.22 73.144L2.49121 74.3905L5.22 73.144ZM5.22 22.456L2.49121 21.2095V21.2095L5.22 22.456ZM18.552 6.22L20.198 8.72816L20.2072 8.72206L18.552 6.22ZM57.36 6.22L55.6869 8.71015L55.7093 8.72515L55.7319 8.73975L57.36 6.22ZM70.824 22.456L73.5528 21.2095V21.2095L70.824 22.456ZM57.36 89.512L59.006 92.0202L59.0152 92.0141L57.36 89.512ZM55.776 74.2L53.3635 72.4168L53.3551 72.4282L53.3468 72.4397L55.776 74.2ZM55.776 21.4L53.3468 23.1603L53.3551 23.1718L53.3635 23.1832L55.776 21.4ZM20.136 21.4L17.7235 19.6168L17.7151 19.6282L17.7068 19.6397L20.136 21.4ZM20.136 74.2L17.7068 75.9603L17.7151 75.9718L17.7235 75.9832L20.136 74.2ZM38.088 92.056C31.3178 92.056 25.3795 90.3518 20.1801 86.9922L16.9239 92.0318C23.1645 96.0642 30.2502 98.056 38.088 98.056V92.056ZM20.2251 87.0219C15.1207 83.5923 11.0109 78.601 7.94879 71.8975L2.49121 74.3905C5.94115 81.943 10.7194 87.8637 16.8789 92.0022L20.2251 87.0219ZM7.94879 71.8975C4.90987 65.2448 3.336 57.2409 3.336 47.8H-2.664C-2.664 57.8951 -0.981872 66.7872 2.49121 74.3905L7.94879 71.8975ZM3.336 47.8C3.336 38.3591 4.90987 30.3552 7.94879 23.7025L2.49121 21.2095C-0.981872 28.8128 -2.664 37.7049 -2.664 47.8H3.336ZM7.94879 23.7025C11.009 17.0031 15.1115 12.0662 20.198 8.72814L16.906 3.71185C10.7285 7.76583 5.94302 13.6529 2.49121 21.2095L7.94879 23.7025ZM20.2072 8.72206C25.4038 5.2843 31.3325 3.544 38.088 3.544V-2.456C30.2355 -2.456 23.1402 -0.412304 16.8968 3.71794L20.2072 8.72206ZM38.088 3.544C44.7479 3.544 50.5816 5.28004 55.6869 8.71015L59.0331 3.72985C52.8744 -0.408038 45.8601 -2.456 38.088 -2.456V3.544ZM55.7319 8.73975C60.9019 12.0804 65.0404 17.0149 68.0952 23.7025L73.5528 21.2095C70.0956 13.6411 65.2581 7.75163 58.9882 3.70025L55.7319 8.73975ZM68.0952 23.7025C71.1341 30.3552 72.708 38.3591 72.708 47.8H78.708C78.708 37.7049 77.0259 28.8128 73.5528 21.2095L68.0952 23.7025ZM72.708 47.8C72.708 57.2409 71.1341 65.2448 68.0952 71.8975L73.5528 74.3905C77.0259 66.7872 78.708 57.8951 78.708 47.8H72.708ZM68.0952 71.8975C65.0385 78.5893 60.8925 83.578 55.7048 87.0099L59.0152 92.0141C65.2675 87.878 70.0975 81.9547 73.5528 74.3905L68.0952 71.8975ZM55.714 87.0039C50.6062 90.3558 44.7627 92.056 38.088 92.056V98.056C45.8453 98.056 52.8498 96.0602 59.006 92.0201L55.714 87.0039ZM38.088 86.308C46.458 86.308 53.2506 82.7977 58.2053 75.9603L53.3468 72.4397C49.5014 77.7463 44.502 80.308 38.088 80.308V86.308ZM58.1885 75.9832C63.2118 69.187 65.508 59.6513 65.508 47.8H59.508C59.508 59.0047 57.3162 67.069 53.3635 72.4168L58.1885 75.9832ZM65.508 47.8C65.508 35.9487 63.2118 26.413 58.1885 19.6168L53.3635 23.1832C57.3162 28.531 59.508 36.5953 59.508 47.8H65.508ZM58.2053 19.6397C53.2506 12.8023 46.458 9.292 38.088 9.292V15.292C44.502 15.292 49.5014 17.8537 53.3468 23.1603L58.2053 19.6397ZM38.088 9.292C29.6458 9.292 22.7708 12.7881 17.7235 19.6168L22.5485 23.1832C26.4772 17.8679 31.5702 15.292 38.088 15.292V9.292ZM17.7068 19.6397C12.7846 26.4322 10.536 35.9583 10.536 47.8H16.536C16.536 36.5857 18.6874 28.5118 22.5653 23.1603L17.7068 19.6397ZM10.536 47.8C10.536 59.6417 12.7846 69.1678 17.7068 75.9603L22.5653 72.4397C18.6874 67.0882 16.536 59.0143 16.536 47.8H10.536ZM17.7235 75.9832C22.7708 82.8119 29.6458 86.308 38.088 86.308V80.308C31.5702 80.308 26.4772 77.7321 22.5485 72.4168L17.7235 75.9832ZM116.636 1.59999H119.636V-1.40001H116.636V1.59999ZM116.636 94V97H119.636V94H116.636ZM103.568 94H100.568V97H103.568V94ZM103.568 13.084H106.568V10.084H103.568V13.084ZM82.7122 13.084H79.7122V16.084H82.7122V13.084ZM82.7122 1.59999V-1.40001H79.7122V1.59999H82.7122ZM113.636 1.59999V94H119.636V1.59999H113.636ZM116.636 91H103.568V97H116.636V91ZM106.568 94V13.084H100.568V94H106.568ZM103.568 10.084H82.7122V16.084H103.568V10.084ZM85.7122 13.084V1.59999H79.7122V13.084H85.7122ZM82.7122 4.59999H116.636V-1.40001H82.7122V4.59999Z" fill="#282856" mask="url(#path-1-outside-1_2002_258)"/>
</svg>
