<svg width="153" height="96" viewBox="0 0 153 96" fill="none" xmlns="http://www.w3.org/2000/svg">
<mask id="path-1-outside-1_2002_260" maskUnits="userSpaceOnUse" x="-3" y="-3" width="159" height="102" fill="black">
<rect fill="white" x="-3" y="-3" width="159" height="102"/>
<path d="M38.088 95.056C30.784 95.056 24.272 93.208 18.552 89.512C12.92 85.728 8.476 80.272 5.22 73.144C1.964 66.016 0.336 57.568 0.336 47.8C0.336 38.032 1.964 29.584 5.22 22.456C8.476 15.328 12.92 9.916 18.552 6.22C24.272 2.436 30.784 0.543999 38.088 0.543999C45.304 0.543999 51.728 2.436 57.36 6.22C63.08 9.916 67.568 15.328 70.824 22.456C74.08 29.584 75.708 38.032 75.708 47.8C75.708 57.568 74.08 66.016 70.824 73.144C67.568 80.272 63.08 85.728 57.36 89.512C51.728 93.208 45.304 95.056 38.088 95.056ZM38.088 83.308C45.48 83.308 51.376 80.272 55.776 74.2C60.264 68.128 62.508 59.328 62.508 47.8C62.508 36.272 60.264 27.472 55.776 21.4C51.376 15.328 45.48 12.292 38.088 12.292C30.608 12.292 24.624 15.328 20.136 21.4C15.736 27.472 13.536 36.272 13.536 47.8C13.536 59.328 15.736 68.128 20.136 74.2C24.624 80.272 30.608 83.308 38.088 83.308ZM152.936 82.516V94H86.5403V85.024L124.16 48.724C128.736 44.324 131.816 40.54 133.4 37.372C134.984 34.116 135.776 30.86 135.776 27.604C135.776 22.764 134.06 19.024 130.628 16.384C127.284 13.656 122.444 12.292 116.108 12.292C105.9 12.292 98.0243 15.636 92.4803 22.324L83.5043 14.536C87.1123 10.136 91.8203 6.704 97.6283 4.24C103.524 1.776 110.08 0.543999 117.296 0.543999C126.976 0.543999 134.676 2.876 140.396 7.54C146.116 12.116 148.976 18.364 148.976 26.284C148.976 31.212 147.92 35.876 145.808 40.276C143.696 44.676 139.692 49.692 133.796 55.324L105.548 82.516H152.936Z"/>
</mask>
<path d="M18.552 89.512L16.8789 92.0022L16.9013 92.0172L16.9239 92.0318L18.552 89.512ZM5.22 73.144L2.49121 74.3905L5.22 73.144ZM5.22 22.456L2.49121 21.2095V21.2095L5.22 22.456ZM18.552 6.22L20.198 8.72816L20.2072 8.72206L18.552 6.22ZM57.36 6.22L55.6869 8.71015L55.7093 8.72515L55.7319 8.73975L57.36 6.22ZM70.824 22.456L73.5528 21.2095V21.2095L70.824 22.456ZM57.36 89.512L59.006 92.0202L59.0152 92.0141L57.36 89.512ZM55.776 74.2L53.3635 72.4168L53.3551 72.4282L53.3468 72.4397L55.776 74.2ZM55.776 21.4L53.3468 23.1603L53.3551 23.1718L53.3635 23.1832L55.776 21.4ZM20.136 21.4L17.7235 19.6168L17.7151 19.6282L17.7068 19.6397L20.136 21.4ZM20.136 74.2L17.7068 75.9603L17.7151 75.9718L17.7235 75.9832L20.136 74.2ZM38.088 92.056C31.3178 92.056 25.3795 90.3518 20.1801 86.9922L16.9239 92.0318C23.1645 96.0642 30.2502 98.056 38.088 98.056V92.056ZM20.2251 87.0219C15.1207 83.5923 11.0109 78.601 7.94879 71.8975L2.49121 74.3905C5.94115 81.943 10.7194 87.8637 16.8789 92.0022L20.2251 87.0219ZM7.94879 71.8975C4.90987 65.2448 3.336 57.2409 3.336 47.8H-2.664C-2.664 57.8951 -0.981872 66.7872 2.49121 74.3905L7.94879 71.8975ZM3.336 47.8C3.336 38.3591 4.90987 30.3552 7.94879 23.7025L2.49121 21.2095C-0.981872 28.8128 -2.664 37.7049 -2.664 47.8H3.336ZM7.94879 23.7025C11.009 17.0031 15.1115 12.0662 20.198 8.72814L16.906 3.71185C10.7285 7.76583 5.94302 13.6529 2.49121 21.2095L7.94879 23.7025ZM20.2072 8.72206C25.4038 5.2843 31.3325 3.544 38.088 3.544V-2.456C30.2355 -2.456 23.1402 -0.412304 16.8968 3.71794L20.2072 8.72206ZM38.088 3.544C44.7479 3.544 50.5816 5.28004 55.6869 8.71015L59.0331 3.72985C52.8744 -0.408038 45.8601 -2.456 38.088 -2.456V3.544ZM55.7319 8.73975C60.9019 12.0804 65.0404 17.0149 68.0952 23.7025L73.5528 21.2095C70.0956 13.6411 65.2581 7.75163 58.9882 3.70025L55.7319 8.73975ZM68.0952 23.7025C71.1341 30.3552 72.708 38.3591 72.708 47.8H78.708C78.708 37.7049 77.0259 28.8128 73.5528 21.2095L68.0952 23.7025ZM72.708 47.8C72.708 57.2409 71.1341 65.2448 68.0952 71.8975L73.5528 74.3905C77.0259 66.7872 78.708 57.8951 78.708 47.8H72.708ZM68.0952 71.8975C65.0385 78.5893 60.8925 83.578 55.7048 87.0099L59.0152 92.0141C65.2675 87.878 70.0975 81.9547 73.5528 74.3905L68.0952 71.8975ZM55.714 87.0039C50.6062 90.3558 44.7627 92.056 38.088 92.056V98.056C45.8453 98.056 52.8498 96.0602 59.006 92.0201L55.714 87.0039ZM38.088 86.308C46.458 86.308 53.2506 82.7977 58.2053 75.9603L53.3468 72.4397C49.5014 77.7463 44.502 80.308 38.088 80.308V86.308ZM58.1885 75.9832C63.2118 69.187 65.508 59.6513 65.508 47.8H59.508C59.508 59.0047 57.3162 67.069 53.3635 72.4168L58.1885 75.9832ZM65.508 47.8C65.508 35.9487 63.2118 26.413 58.1885 19.6168L53.3635 23.1832C57.3162 28.531 59.508 36.5953 59.508 47.8H65.508ZM58.2053 19.6397C53.2506 12.8023 46.458 9.292 38.088 9.292V15.292C44.502 15.292 49.5014 17.8537 53.3468 23.1603L58.2053 19.6397ZM38.088 9.292C29.6458 9.292 22.7708 12.7881 17.7235 19.6168L22.5485 23.1832C26.4772 17.8679 31.5702 15.292 38.088 15.292V9.292ZM17.7068 19.6397C12.7846 26.4322 10.536 35.9583 10.536 47.8H16.536C16.536 36.5857 18.6874 28.5118 22.5653 23.1603L17.7068 19.6397ZM10.536 47.8C10.536 59.6417 12.7846 69.1678 17.7068 75.9603L22.5653 72.4397C18.6874 67.0882 16.536 59.0143 16.536 47.8H10.536ZM17.7235 75.9832C22.7708 82.8119 29.6458 86.308 38.088 86.308V80.308C31.5702 80.308 26.4772 77.7321 22.5485 72.4168L17.7235 75.9832ZM152.936 82.516H155.936V79.516H152.936V82.516ZM152.936 94V97H155.936V94H152.936ZM86.5403 94H83.5403V97H86.5403V94ZM86.5403 85.024L84.4571 82.8651L83.5403 83.7499V85.024H86.5403ZM124.16 48.724L122.081 46.5615L122.077 46.5651L124.16 48.724ZM133.4 37.372L136.084 38.7136L136.091 38.6991L136.098 38.6844L133.4 37.372ZM130.628 16.384L128.732 18.7086L128.765 18.7357L128.799 18.7619L130.628 16.384ZM92.4802 22.324L90.5142 24.59L92.8317 26.6008L94.7899 24.2386L92.4802 22.324ZM83.5042 14.536L81.1844 12.6338L79.3344 14.8899L81.5382 16.802L83.5042 14.536ZM97.6283 4.24L96.4715 1.47199L96.464 1.4751L96.4566 1.47825L97.6283 4.24ZM140.396 7.54L138.5 9.86505L138.511 9.87388L138.522 9.8826L140.396 7.54ZM145.808 40.276L148.513 41.5742L145.808 40.276ZM133.796 55.324L131.724 53.1547L131.716 53.1627L133.796 55.324ZM105.548 82.516L103.468 80.3547L98.1059 85.516H105.548V82.516ZM149.936 82.516V94H155.936V82.516H149.936ZM152.936 91H86.5403V97H152.936V91ZM89.5403 94V85.024H83.5403V94H89.5403ZM88.6234 87.1829L126.243 50.8829L122.077 46.5651L84.4571 82.8651L88.6234 87.1829ZM126.24 50.8865C130.899 46.4062 134.27 42.3399 136.084 38.7136L130.717 36.0304C129.362 38.7401 126.573 42.2418 122.081 46.5615L126.24 50.8865ZM136.098 38.6844C137.858 35.0658 138.776 31.3635 138.776 27.604H132.776C132.776 30.3564 132.11 33.1662 130.703 36.0596L136.098 38.6844ZM138.776 27.604C138.776 21.9581 136.722 17.2864 132.457 14.0061L128.799 18.7619C131.399 20.7616 132.776 23.5699 132.776 27.604H138.776ZM132.525 14.0594C128.444 10.7308 122.822 9.292 116.108 9.292V15.292C122.067 15.292 126.124 16.5812 128.732 18.7086L132.525 14.0594ZM116.108 9.292C105.181 9.292 96.3869 12.9104 90.1706 20.4094L94.7899 24.2386C99.6616 18.3616 106.62 15.292 116.108 15.292V9.292ZM94.4463 20.058L85.4703 12.27L81.5382 16.802L90.5142 24.59L94.4463 20.058ZM85.8241 16.4382C89.0921 12.4528 93.3891 9.29724 98.7999 7.00175L96.4566 1.47825C90.2514 4.11076 85.1324 7.81924 81.1844 12.6338L85.8241 16.4382ZM98.785 7.00801C104.27 4.71571 110.426 3.544 117.296 3.544V-2.456C109.734 -2.456 102.778 -1.16371 96.4715 1.47199L98.785 7.00801ZM117.296 3.544C126.503 3.544 133.463 5.75754 138.5 9.86505L142.292 5.21494C135.89 -0.00554657 127.45 -2.456 117.296 -2.456V3.544ZM138.522 9.8826C143.467 13.8383 145.976 19.1905 145.976 26.284H151.976C151.976 17.5375 148.766 10.3937 142.27 5.19739L138.522 9.8826ZM145.976 26.284C145.976 30.7671 145.019 34.987 143.104 38.9778L148.513 41.5742C150.821 36.765 151.976 31.6569 151.976 26.284H145.976ZM143.104 38.9778C141.219 42.905 137.51 47.6279 131.724 53.1547L135.868 57.4933C141.875 51.7561 146.174 46.447 148.513 41.5742L143.104 38.9778ZM131.716 53.1627L103.468 80.3547L107.629 84.6773L135.877 57.4853L131.716 53.1627ZM105.548 85.516H152.936V79.516H105.548V85.516Z" fill="#282856" mask="url(#path-1-outside-1_2002_260)"/>
</svg>
