<svg width="91" height="90" viewBox="0 0 91 90" fill="none" xmlns="http://www.w3.org/2000/svg">
<path fill-rule="evenodd" clip-rule="evenodd" d="M45.5 90C70.3528 90 90.5 69.8528 90.5 45C90.5 20.1472 70.3528 0 45.5 0C20.6472 0 0.5 20.1472 0.5 45C0.5 69.8528 20.6472 90 45.5 90Z" fill="#282868" fill-opacity="0.5"/>
<path fill-rule="evenodd" clip-rule="evenodd" d="M45.5 83C66.763 83 84 65.763 84 44.5C84 23.237 66.763 6 45.5 6C24.237 6 7 23.237 7 44.5C7 65.763 24.237 83 45.5 83Z" fill="#101033"/>
<path fill-rule="evenodd" clip-rule="evenodd" d="M36.2533 45.043H34.9775C33.142 45.043 31.5421 46.2922 31.0969 48.0728L28.2249 59.561C27.5938 62.0855 29.5032 64.5311 32.1055 64.5311H59.8947C62.4969 64.5311 64.4064 62.0855 63.7752 59.561L60.9032 48.0728C60.458 46.2922 58.8581 45.043 57.0226 45.043H55.7469C55.1791 46.3909 54.5164 47.7375 53.8085 49.043L57.0226 49.043L59.8947 60.5311L32.1055 60.5311L34.9775 49.043L38.1917 49.043C37.4838 47.7375 36.8211 46.3909 36.2533 45.043Z" fill="#E1E1FF"/>
<path d="M55 37C55 40.1927 53.5663 44.2264 51.6037 48.175C49.7233 51.9582 47.4846 55.4169 46 57.5696C44.5154 55.4169 42.2767 51.9582 40.3963 48.175C38.4337 44.2264 37 40.1927 37 37C37 31.3098 41.1897 27 46 27C50.8103 27 55 31.3098 55 37Z" stroke="#E1E1FF" stroke-width="4" stroke-linecap="round"/>
<circle cx="46" cy="38" r="3" fill="#E1E1FF"/>
</svg>
