<svg width="91" height="90" viewBox="0 0 91 90" fill="none" xmlns="http://www.w3.org/2000/svg">
<path fill-rule="evenodd" clip-rule="evenodd" d="M45.5 90C70.3528 90 90.5 69.8528 90.5 45C90.5 20.1472 70.3528 0 45.5 0C20.6472 0 0.5 20.1472 0.5 45C0.5 69.8528 20.6472 90 45.5 90Z" fill="#282868" fill-opacity="0.5"/>
<path fill-rule="evenodd" clip-rule="evenodd" d="M45.5 83C66.763 83 84 65.763 84 44.5C84 23.237 66.763 6 45.5 6C24.237 6 7 23.237 7 44.5C7 65.763 24.237 83 45.5 83Z" fill="#101033"/>
<g clip-path="url(#clip0_2002_290)">
<path d="M32.9083 38.4717L58.2621 30.217C59.817 29.7107 61.2892 31.183 60.783 32.7379L52.5283 58.0917C51.9267 59.9393 49.3098 59.9305 48.7207 58.079L45.2206 47.0788C45.0239 46.4605 44.5395 45.9761 43.9212 45.7794L32.921 42.2793C31.0694 41.6902 31.0607 39.0733 32.9083 38.4717Z" stroke="#E1E1FF" stroke-width="4"/>
</g>
<defs>
<clipPath id="clip0_2002_290">
<rect width="35" height="34" fill="white" transform="translate(28 28)"/>
</clipPath>
</defs>
</svg>
