<svg width="91" height="90" viewBox="0 0 91 90" fill="none" xmlns="http://www.w3.org/2000/svg">
<path fill-rule="evenodd" clip-rule="evenodd" d="M45.5 90C70.3528 90 90.5 69.8528 90.5 45C90.5 20.1472 70.3528 0 45.5 0C20.6472 0 0.5 20.1472 0.5 45C0.5 69.8528 20.6472 90 45.5 90Z" fill="#282868" fill-opacity="0.5"/>
<path fill-rule="evenodd" clip-rule="evenodd" d="M45.5 83C66.763 83 84 65.763 84 44.5C84 23.237 66.763 6 45.5 6C24.237 6 7 23.237 7 44.5C7 65.763 24.237 83 45.5 83Z" fill="#101033"/>
<rect x="29" y="33" width="32" height="24" rx="2" stroke="#E1E1FF" stroke-width="4"/>
<circle cx="46.5" cy="48.5" r="3.5" fill="#E1E1FF"/>
<circle cx="52.5" cy="48.5" r="3.5" fill="#E1E1FF"/>
<path d="M31 40H59" stroke="#E1E1FF" stroke-width="4" stroke-linecap="round"/>
</svg>
