<svg width="91" height="90" viewBox="0 0 91 90" fill="none" xmlns="http://www.w3.org/2000/svg">
<path fill-rule="evenodd" clip-rule="evenodd" d="M45.5 90C70.3528 90 90.5 69.8528 90.5 45C90.5 20.1472 70.3528 0 45.5 0C20.6472 0 0.5 20.1472 0.5 45C0.5 69.8528 20.6472 90 45.5 90Z" fill="#282868" fill-opacity="0.5"/>
<path fill-rule="evenodd" clip-rule="evenodd" d="M45.5 83C66.763 83 84 65.763 84 44.5C84 23.237 66.763 6 45.5 6C24.237 6 7 23.237 7 44.5C7 65.763 24.237 83 45.5 83Z" fill="#101033"/>
<g clip-path="url(#clip0_2002_305)">
<path d="M60.5858 41.4836L42.6552 59.4142C42.2801 59.7893 41.7714 60 41.241 60H31V49.759C31 49.2286 31.2107 48.7199 31.5858 48.3448L49.5164 30.4142C50.2974 29.6332 51.5638 29.6332 52.3448 30.4142L60.5858 38.6552C61.3668 39.4362 61.3668 40.7026 60.5858 41.4836Z" stroke="#E1E1FF" stroke-width="4" stroke-linejoin="round"/>
<path d="M46 35L56 45" stroke="#E1E1FF" stroke-width="4"/>
</g>
<defs>
<clipPath id="clip0_2002_305">
<rect width="35" height="35" fill="white" transform="translate(28 27)"/>
</clipPath>
</defs>
</svg>
