<svg width="91" height="90" viewBox="0 0 91 90" fill="none" xmlns="http://www.w3.org/2000/svg">
<path fill-rule="evenodd" clip-rule="evenodd" d="M45.5 90C70.3528 90 90.5 69.8528 90.5 45C90.5 20.1472 70.3528 0 45.5 0C20.6472 0 0.5 20.1472 0.5 45C0.5 69.8528 20.6472 90 45.5 90Z" fill="#282868" fill-opacity="0.5"/>
<path fill-rule="evenodd" clip-rule="evenodd" d="M45.5 83C66.763 83 84 65.763 84 44.5C84 23.237 66.763 6 45.5 6C24.237 6 7 23.237 7 44.5C7 65.763 24.237 83 45.5 83Z" fill="#101033"/>
<path d="M40.4997 41.3333H42.333C42.8192 41.3333 43.2856 41.1402 43.6294 40.7964C43.9732 40.4525 44.1663 39.9862 44.1663 39.5C44.1663 39.0138 43.9732 38.5474 43.6294 38.2036C43.2856 37.8598 42.8192 37.6667 42.333 37.6667H40.4997C40.0134 37.6667 39.5471 37.8598 39.2033 38.2036C38.8595 38.5474 38.6663 39.0138 38.6663 39.5C38.6663 39.9862 38.8595 40.4525 39.2033 40.7964C39.5471 41.1402 40.0134 41.3333 40.4997 41.3333ZM40.4997 45C40.0134 45 39.5471 45.1931 39.2033 45.537C38.8595 45.8808 38.6663 46.3471 38.6663 46.8333C38.6663 47.3196 38.8595 47.7859 39.2033 48.1297C39.5471 48.4735 40.0134 48.6667 40.4997 48.6667H51.4997C51.9859 48.6667 52.4522 48.4735 52.796 48.1297C53.1399 47.7859 53.333 47.3196 53.333 46.8333C53.333 46.3471 53.1399 45.8808 52.796 45.537C52.4522 45.1931 51.9859 45 51.4997 45H40.4997ZM60.6663 39.39C60.6472 39.2216 60.6104 39.0556 60.5563 38.895V38.73C60.4682 38.5415 60.3506 38.3682 60.208 38.2167L49.208 27.2167C49.0565 27.0741 48.8832 26.9565 48.6947 26.8683C48.6399 26.8605 48.5844 26.8605 48.5297 26.8683C48.3434 26.7615 48.1378 26.693 47.9247 26.6667H36.833C35.3743 26.6667 33.9754 27.2461 32.9439 28.2776C31.9125 29.309 31.333 30.708 31.333 32.1667V57.8333C31.333 59.292 31.9125 60.691 32.9439 61.7224C33.9754 62.7539 35.3743 63.3333 36.833 63.3333H55.1663C56.625 63.3333 58.024 62.7539 59.0554 61.7224C60.0869 60.691 60.6663 59.292 60.6663 57.8333V39.5C60.6663 39.5 60.6663 39.5 60.6663 39.39ZM49.6663 32.9183L54.4147 37.6667H51.4997C51.0134 37.6667 50.5471 37.4735 50.2033 37.1297C49.8595 36.7859 49.6663 36.3196 49.6663 35.8333V32.9183ZM56.9997 57.8333C56.9997 58.3196 56.8065 58.7859 56.4627 59.1297C56.1189 59.4735 55.6526 59.6667 55.1663 59.6667H36.833C36.3468 59.6667 35.8805 59.4735 35.5366 59.1297C35.1928 58.7859 34.9997 58.3196 34.9997 57.8333V32.1667C34.9997 31.6804 35.1928 31.2141 35.5366 30.8703C35.8805 30.5265 36.3468 30.3333 36.833 30.3333H45.9997V35.8333C45.9997 37.292 46.5791 38.691 47.6106 39.7224C48.642 40.7539 50.041 41.3333 51.4997 41.3333H56.9997V57.8333ZM51.4997 52.3333H40.4997C40.0134 52.3333 39.5471 52.5265 39.2033 52.8703C38.8595 53.2141 38.6663 53.6804 38.6663 54.1667C38.6663 54.6529 38.8595 55.1192 39.2033 55.463C39.5471 55.8068 40.0134 56 40.4997 56H51.4997C51.9859 56 52.4522 55.8068 52.796 55.463C53.1399 55.1192 53.333 54.6529 53.333 54.1667C53.333 53.6804 53.1399 53.2141 52.796 52.8703C52.4522 52.5265 51.9859 52.3333 51.4997 52.3333Z" fill="#E1E1FF"/>
</svg>
