<svg width="91" height="90" viewBox="0 0 91 90" fill="none" xmlns="http://www.w3.org/2000/svg">
<path fill-rule="evenodd" clip-rule="evenodd" d="M45.5 89.9998C70.3528 89.9998 90.5 69.8526 90.5 44.9998C90.5 20.1469 70.3528 -0.000244141 45.5 -0.000244141C20.6472 -0.000244141 0.5 20.1469 0.5 44.9998C0.5 69.8526 20.6472 89.9998 45.5 89.9998Z" fill="#282868" fill-opacity="0.5"/>
<path fill-rule="evenodd" clip-rule="evenodd" d="M45.5 82.9998C66.763 82.9998 84 65.7627 84 44.4998C84 23.2368 66.763 5.99976 45.5 5.99976C24.237 5.99976 7 23.2368 7 44.4998C7 65.7627 24.237 82.9998 45.5 82.9998Z" fill="#101033"/>
<path d="M37.25 41.4996C37.3016 40.9052 37.419 40.3182 37.6 39.7496C37.7688 39.1399 38.0097 38.5524 38.3175 37.9996C37.7827 38.0097 37.2568 37.8614 36.8061 37.5735C36.3553 37.2855 35.9997 36.8706 35.7841 36.3811C35.5685 35.8916 35.5024 35.3492 35.5941 34.8223C35.6859 34.2953 35.9314 33.8072 36.2999 33.4194C36.6683 33.0316 37.1431 32.7614 37.6647 32.6427C38.1863 32.524 38.7313 32.5623 39.2313 32.7525C39.7312 32.9428 40.1637 33.2766 40.4744 33.712C40.7851 34.1475 40.9602 34.665 40.9775 35.1996C41.4823 34.848 42.0218 34.5489 42.5875 34.3071C43.1262 34.0909 43.6824 33.9211 44.25 33.7996C43.9645 32.7231 43.394 31.7434 42.5986 30.9638C41.8032 30.1841 40.8123 29.6333 39.7302 29.3694C38.6482 29.1054 37.515 29.138 36.4499 29.4638C35.3849 29.7896 34.4273 30.3965 33.6781 31.2207C32.9289 32.0448 32.4157 33.0557 32.1926 34.1469C31.9695 35.2381 32.0447 36.3693 32.4103 37.4213C32.7759 38.4734 33.4183 39.4074 34.27 40.1252C35.1217 40.8429 36.1512 41.3177 37.25 41.4996ZM38.3 48.4996C38.7898 48.5097 39.277 48.5742 39.7525 48.6921C39.1972 48.1093 38.7207 47.4562 38.335 46.7496C38.0315 46.1927 37.7852 45.6063 37.6 44.9996C35.1286 45.1725 32.8148 46.2766 31.1258 48.089C29.4368 49.9014 28.4984 52.2872 28.5 54.7646C28.5 55.2288 28.6844 55.6739 29.0126 56.0021C29.3408 56.3303 29.7859 56.5146 30.25 56.5146H34.1175C34.2948 55.9154 34.5171 55.3304 34.7825 54.7646C35.0702 54.1569 35.4037 53.5719 35.78 53.0146H32.28C32.6591 51.7116 33.451 50.5669 34.5366 49.7526C35.6223 48.9384 36.9429 48.4987 38.3 48.4996ZM51.0575 35.2346C51.1017 34.7129 51.297 34.2152 51.6194 33.8026C51.9419 33.39 52.3776 33.0803 52.8732 32.9113C53.3689 32.7423 53.903 32.7214 54.4103 32.8511C54.9177 32.9808 55.3763 33.2555 55.73 33.6416C56.0837 34.0277 56.3173 34.5085 56.4022 35.0253C56.4871 35.542 56.4196 36.0723 56.208 36.5513C55.9964 37.0303 55.6498 37.4372 55.2106 37.7224C54.7714 38.0076 54.2587 38.1587 53.735 38.1571C54.0428 38.7099 54.2837 39.2974 54.4525 39.9071C54.6335 40.4757 54.7509 41.0627 54.8025 41.6571C55.8862 41.4591 56.8975 40.9756 57.7322 40.2565C58.5668 39.5375 59.1946 38.6088 59.5509 37.5663C59.9071 36.5238 59.9789 35.4052 59.7589 34.3257C59.5388 33.2462 59.0349 32.245 58.299 31.4251C57.5632 30.6052 56.622 29.9964 55.5724 29.6614C54.5229 29.3264 53.4031 29.2774 52.3283 29.5193C51.2535 29.7612 50.2627 30.2854 49.4579 31.0378C48.6532 31.7902 48.0636 32.7435 47.75 33.7996C48.3494 33.916 48.9356 34.0918 49.5 34.3246C50.0462 34.5792 50.5676 34.8838 51.0575 35.2346ZM54.4 44.9996C54.2148 45.6063 53.9685 46.1927 53.665 46.7496C53.2801 47.4665 52.7971 48.1262 52.23 48.7096C52.721 48.5774 53.2266 48.5069 53.735 48.4996C55.0914 48.5015 56.4107 48.9423 57.4958 49.7561C58.5808 50.57 59.3734 51.7131 59.755 53.0146H56.255C56.6313 53.5719 56.9648 54.1569 57.2525 54.7646C57.5179 55.3304 57.7402 55.9154 57.9175 56.5146H61.75C62.2141 56.5146 62.6593 56.3303 62.9874 56.0021C63.3156 55.6739 63.5 55.2288 63.5 54.7646C63.5058 52.286 62.5687 49.8979 60.8789 48.0846C59.1891 46.2713 56.8729 45.1684 54.4 44.9996ZM40.75 39.1721C40.3029 39.8787 40.0106 40.6719 39.8925 41.4996C39.8298 41.8404 39.7947 42.1857 39.7875 42.5321C39.8035 43.5067 40.043 44.4647 40.4875 45.3321C41.0859 46.4933 42.035 47.4363 43.2 48.0271C44.0325 48.4649 44.9548 48.7044 45.895 48.7271C45.9447 48.7652 45.9863 48.8128 46.0175 48.8671L46.14 48.7096C47.0678 48.6933 47.9789 48.4596 48.8 48.0271C49.9599 47.4353 50.9032 46.4921 51.495 45.3321C51.9567 44.4704 52.2029 43.5097 52.2125 42.5321C52.2053 42.1799 52.1702 41.8288 52.1075 41.4821C51.9774 40.652 51.6861 39.8554 51.25 39.1371C50.8928 38.5706 50.4432 38.0678 49.92 37.6496C48.8024 36.7654 47.4249 36.2734 46 36.2496C45.462 36.2614 44.9273 36.3378 44.4075 36.4771C43.5999 36.6999 42.8445 37.0805 42.185 37.5971C41.6137 38.0292 41.1272 38.5632 40.75 39.1721ZM46 39.7496C46.5365 39.7496 47.0609 39.9087 47.507 40.2068C47.9531 40.5048 48.3007 40.9285 48.506 41.4241C48.7113 41.9198 48.765 42.4652 48.6604 42.9913C48.5557 43.5175 48.2974 44.0008 47.918 44.3802C47.5387 44.7595 47.0554 45.0179 46.5292 45.1225C46.003 45.2272 45.4576 45.1735 44.962 44.9682C44.4663 44.7629 44.0427 44.4152 43.7446 43.9691C43.4466 43.5231 43.2875 42.9986 43.2875 42.4621C43.2875 41.7427 43.5733 41.0528 44.082 40.5441C44.5907 40.0354 45.2806 39.7496 46 39.7496ZM54.225 54.7646C53.8166 54.1322 53.3414 53.5455 52.8075 53.0146C51.727 51.97 50.4221 51.1859 48.9925 50.7221C48.3712 50.4909 47.7252 50.3324 47.0675 50.2496C46.712 50.229 46.3555 50.229 46 50.2496H45.055H44.9675C44.3141 50.3195 43.6692 50.4543 43.0425 50.6521C41.6129 51.1159 40.308 51.9 39.2275 52.9446C38.6936 53.4755 38.2184 54.0622 37.81 54.6946C37.4608 55.2501 37.1621 55.8358 36.9175 56.4446C36.4879 57.5615 36.2684 58.7481 36.27 59.9446C36.27 60.4088 36.4544 60.8539 36.7826 61.1821C37.1108 61.5103 37.5559 61.6946 38.02 61.6946H54.05C54.5141 61.6946 54.9592 61.5103 55.2874 61.1821C55.6156 60.8539 55.8 60.4088 55.8 59.9446C55.8016 58.7481 55.5821 57.5615 55.1525 56.4446C54.893 55.8586 54.5826 55.2965 54.225 54.7646ZM40.75 56.5146C41.2144 55.8234 41.8087 55.229 42.5 54.7646C42.9255 54.4716 43.3912 54.2418 43.8825 54.0821C44.4473 53.8921 45.0369 53.786 45.6325 53.7671H46.035C46.6306 53.7862 47.2202 53.8923 47.785 54.0821C48.2575 54.2604 48.7093 54.4892 49.1325 54.7646C50.4151 55.5652 51.3563 56.8118 51.775 58.2646H39.98C40.1477 57.6461 40.4072 57.0562 40.75 56.5146Z" fill="#E1E1FF"/>
</svg>
