<svg width="84" height="84" viewBox="0 0 84 84" fill="none" xmlns="http://www.w3.org/2000/svg">
<g opacity="0.3" filter="url(#filter0_b_2004_22)">
<rect opacity="0.5" width="84" height="84" rx="12" fill="#5C5689"/>
</g>
<g clip-path="url(#clip0_2004_22)">
<path d="M60.8761 24.6108C60.7935 23.7847 60.174 23.1652 59.3479 23.0826C48.8979 22.2565 41.4218 27.3369 36.7544 33.6978C34.1935 32.8717 31.4261 33.1608 28.9066 34.5652C26.4696 35.9282 24.4457 38.2413 23.124 41.05C22.8348 41.7108 22.9587 42.4543 23.4957 42.95C23.9914 43.4456 24.7761 43.5282 25.3957 43.1978C28.0392 41.7934 31.0131 42.0826 32.7892 43.8587L40.0587 51.1282L40.1 51.1695C41.8761 52.9456 42.1653 55.9195 40.7609 58.563C40.4305 59.1826 40.5544 59.9673 41.0087 60.463C41.3392 60.7934 41.7522 60.9587 42.2066 60.9587C42.4544 60.9587 42.7022 60.9173 42.9087 60.7934C45.7174 59.4717 48.0305 57.4065 49.3935 55.0108C50.8392 52.4913 51.1283 49.7239 50.2609 47.1217C52.1196 45.7587 53.8131 44.2717 55.2174 42.6195C59.5957 37.6217 61.4957 31.55 60.8761 24.6108ZM28.5348 39.026C30.3109 37.2913 32.5414 36.2173 34.8957 36.6304C34.2348 37.7869 33.6979 38.9434 33.2022 40.1C31.7979 39.3152 30.187 38.9434 28.5348 39.026ZM45.0153 55.4652C45.0566 53.7717 44.6848 52.1608 43.9414 50.7565C45.1392 50.2608 46.2957 49.6826 47.4109 49.063C47.824 51.4173 46.7914 53.6891 45.0153 55.4652ZM41.7109 48.0717L35.887 42.2478C38.8196 34.4413 46.0892 26.0978 57.6957 26.3043C58.0674 40.1413 46.6674 46.1304 41.7109 48.0717ZM52.4087 31.5913C52.9044 32.0869 53.1935 32.7891 53.1935 33.4913C53.1935 34.1934 52.9044 34.8956 52.4087 35.3913C51.9131 35.8869 51.2109 36.176 50.5087 36.176C49.8066 36.176 49.1044 35.9282 48.6087 35.3913C48.1131 34.8543 47.824 34.1934 47.824 33.4913C47.824 32.7891 48.1131 32.0869 48.6087 31.5913C49.1044 31.0956 49.8066 30.8065 50.5087 30.8065C51.2109 30.8065 51.9131 31.0956 52.4087 31.5913ZM29.1544 48.7739C27.2544 50.6739 27.1718 54.4739 27.1718 55.2173C27.1718 56.126 27.9153 56.8695 28.824 56.8695H28.8653C29.7327 56.8695 33.3674 56.7456 35.2261 54.8869C36.3827 53.7304 36.6305 52.5326 36.6305 51.7478C36.6305 50.6326 36.1761 49.5587 35.3087 48.6913C33.2435 46.5847 30.6414 47.2456 29.1544 48.7739ZM32.9131 52.5326C32.5 52.9456 31.5914 53.2347 30.6414 53.3587C30.8066 52.4087 31.0957 51.5 31.4674 51.1282C31.7566 50.8391 32.0044 50.6739 32.2935 50.6739C32.5 50.6739 32.7479 50.7978 32.9957 51.0456C33.2435 51.2934 33.3674 51.5413 33.3674 51.7478C33.3261 51.9956 33.1196 52.326 32.9131 52.5326Z" fill="#E1E1FF"/>
</g>
<defs>
<filter id="filter0_b_2004_22" x="-130" y="-130" width="344" height="344" filterUnits="userSpaceOnUse" color-interpolation-filters="sRGB">
<feFlood flood-opacity="0" result="BackgroundImageFix"/>
<feGaussianBlur in="BackgroundImageFix" stdDeviation="65"/>
<feComposite in2="SourceAlpha" operator="in" result="effect1_backgroundBlur_2004_22"/>
<feBlend mode="normal" in="SourceGraphic" in2="effect1_backgroundBlur_2004_22" result="shape"/>
</filter>
<clipPath id="clip0_2004_22">
<rect width="38" height="38" fill="white" transform="translate(23 23)"/>
</clipPath>
</defs>
</svg>
