<svg width="160" height="96" viewBox="0 0 160 96" fill="none" xmlns="http://www.w3.org/2000/svg">
<path d="M39.748 95.584C32.18 95.584 25.404 93.736 19.42 90.04C13.436 86.256 8.728 80.8 5.296 73.672C1.864 66.544 0.148 57.92 0.148 47.8C0.148 37.68 1.864 29.056 5.296 21.928C8.728 14.8 13.436 9.388 19.42 5.692C25.404 1.908 32.18 0.0159984 39.748 0.0159984C47.404 0.0159984 54.18 1.908 60.076 5.692C66.06 9.388 70.768 14.8 74.2 21.928C77.632 29.056 79.348 37.68 79.348 47.8C79.348 57.92 77.632 66.544 74.2 73.672C70.768 80.8 66.06 86.256 60.076 90.04C54.18 93.736 47.404 95.584 39.748 95.584ZM39.748 77.5C43.356 77.5 46.48 76.488 49.12 74.464C51.848 72.44 53.96 69.228 55.456 64.828C57.04 60.428 57.832 54.752 57.832 47.8C57.832 40.848 57.04 35.172 55.456 30.772C53.96 26.372 51.848 23.16 49.12 21.136C46.48 19.112 43.356 18.1 39.748 18.1C36.228 18.1 33.104 19.112 30.376 21.136C27.736 23.16 25.624 26.372 24.04 30.772C22.544 35.172 21.796 40.848 21.796 47.8C21.796 54.752 22.544 60.428 24.04 64.828C25.624 69.228 27.736 72.44 30.376 74.464C33.104 76.488 36.228 77.5 39.748 77.5ZM121.154 95.584C114.73 95.584 108.35 94.748 102.014 93.076C95.7658 91.316 90.3978 88.852 85.9098 85.684L94.3578 69.316C97.8778 71.868 101.926 73.892 106.502 75.388C111.166 76.884 115.874 77.632 120.626 77.632C125.994 77.632 130.218 76.576 133.298 74.464C136.378 72.352 137.918 69.404 137.918 65.62C137.918 63.244 137.302 61.132 136.07 59.284C134.838 57.436 132.638 56.028 129.47 55.06C126.39 54.092 122.034 53.608 116.402 53.608H92.7738L97.5258 1.59999H153.89V18.76H105.182L116.27 8.99199L112.97 46.084L101.882 36.316H121.418C130.57 36.316 137.918 37.592 143.462 40.144C149.094 42.608 153.186 45.996 155.738 50.308C158.29 54.62 159.566 59.504 159.566 64.96C159.566 70.416 158.202 75.476 155.474 80.14C152.746 84.716 148.522 88.456 142.802 91.36C137.17 94.176 129.954 95.584 121.154 95.584Z" fill="#2E2E55"/>
</svg>
