<svg width="157" height="96" viewBox="0 0 157 96" fill="none" xmlns="http://www.w3.org/2000/svg">
<path d="M39.748 95.584C32.18 95.584 25.404 93.736 19.42 90.04C13.436 86.256 8.728 80.8 5.296 73.672C1.864 66.544 0.148 57.92 0.148 47.8C0.148 37.68 1.864 29.056 5.296 21.928C8.728 14.8 13.436 9.388 19.42 5.692C25.404 1.908 32.18 0.0159984 39.748 0.0159984C47.404 0.0159984 54.18 1.908 60.076 5.692C66.06 9.388 70.768 14.8 74.2 21.928C77.632 29.056 79.348 37.68 79.348 47.8C79.348 57.92 77.632 66.544 74.2 73.672C70.768 80.8 66.06 86.256 60.076 90.04C54.18 93.736 47.404 95.584 39.748 95.584ZM39.748 77.5C43.356 77.5 46.48 76.488 49.12 74.464C51.848 72.44 53.96 69.228 55.456 64.828C57.04 60.428 57.832 54.752 57.832 47.8C57.832 40.848 57.04 35.172 55.456 30.772C53.96 26.372 51.848 23.16 49.12 21.136C46.48 19.112 43.356 18.1 39.748 18.1C36.228 18.1 33.104 19.112 30.376 21.136C27.736 23.16 25.624 26.372 24.04 30.772C22.544 35.172 21.796 40.848 21.796 47.8C21.796 54.752 22.544 60.428 24.04 64.828C25.624 69.228 27.736 72.44 30.376 74.464C33.104 76.488 36.228 77.5 39.748 77.5ZM118.413 95.584C111.989 95.584 105.609 94.748 99.2728 93.076C92.9368 91.316 87.5688 88.852 83.1688 85.684L91.4848 69.316C95.0048 71.868 99.0968 73.892 103.761 75.388C108.425 76.884 113.133 77.632 117.885 77.632C123.253 77.632 127.477 76.576 130.557 74.464C133.637 72.352 135.177 69.448 135.177 65.752C135.177 62.232 133.813 59.46 131.085 57.436C128.357 55.412 123.957 54.4 117.885 54.4H108.117V40.276L133.857 11.104L136.233 18.76H87.7888V1.59999H152.469V15.46L126.861 44.632L116.037 38.428H122.241C133.593 38.428 142.173 40.98 147.981 46.084C153.789 51.188 156.693 57.744 156.693 65.752C156.693 70.944 155.329 75.828 152.601 80.404C149.873 84.892 145.693 88.544 140.061 91.36C134.429 94.176 127.213 95.584 118.413 95.584Z" fill="#2E2E55"/>
</svg>
