<svg width="125" height="96" viewBox="0 0 125 96" fill="none" xmlns="http://www.w3.org/2000/svg">
<path d="M39.748 95.584C32.092 95.584 25.272 93.692 19.288 89.908C13.304 86.124 8.596 80.668 5.164 73.54C1.82 66.324 0.148 57.744 0.148 47.8C0.148 37.856 1.82 29.32 5.164 22.192C8.596 14.976 13.304 9.47599 19.288 5.692C25.272 1.908 32.092 0.0159984 39.748 0.0159984C47.404 0.0159984 54.224 1.908 60.208 5.692C66.192 9.47599 70.856 14.976 74.2 22.192C77.632 29.32 79.348 37.856 79.348 47.8C79.348 57.744 77.632 66.324 74.2 73.54C70.856 80.668 66.192 86.124 60.208 89.908C54.224 93.692 47.404 95.584 39.748 95.584ZM39.748 77.5C45.38 77.5 49.78 75.08 52.948 70.24C56.204 65.4 57.832 57.92 57.832 47.8C57.832 37.68 56.204 30.2 52.948 25.36C49.78 20.52 45.38 18.1 39.748 18.1C34.204 18.1 29.804 20.52 26.548 25.36C23.38 30.2 21.796 37.68 21.796 47.8C21.796 57.92 23.38 65.4 26.548 70.24C29.804 75.08 34.204 77.5 39.748 77.5ZM124.604 1.59999V94H103.22V18.76H84.7404V1.59999H124.604Z" fill="#2E2E55"/>
</svg>
