<svg width="84" height="84" viewBox="0 0 84 84" fill="none" xmlns="http://www.w3.org/2000/svg">
<g opacity="0.3" filter="url(#filter0_b_2004_21)">
<rect opacity="0.5" width="84" height="84" rx="12" fill="#5C5689"/>
</g>
<path d="M55.3333 28.6666H28.6666C27.7825 28.6666 26.9347 29.0178 26.3096 29.6429C25.6844 30.2681 25.3333 31.1159 25.3333 32V45.3333C25.3333 45.7753 25.5088 46.1992 25.8214 46.5118C26.134 46.8244 26.5579 47 26.9999 47C27.4419 47 27.8659 46.8244 28.1784 46.5118C28.491 46.1992 28.6666 45.7753 28.6666 45.3333V32H55.3333V52H31.0166L36.9999 46.0166L39.1499 48.1833C39.3049 48.3395 39.4892 48.4635 39.6923 48.5481C39.8954 48.6327 40.1132 48.6763 40.3333 48.6763C40.5533 48.6763 40.7711 48.6327 40.9742 48.5481C41.1773 48.4635 41.3616 48.3395 41.5166 48.1833L48.6666 41.0166V43.6666C48.6666 44.1087 48.8422 44.5326 49.1547 44.8451C49.4673 45.1577 49.8912 45.3333 50.3333 45.3333C50.7753 45.3333 51.1992 45.1577 51.5118 44.8451C51.8243 44.5326 51.9999 44.1087 51.9999 43.6666V37C51.9973 36.7822 51.952 36.567 51.8666 36.3666C51.6975 35.9594 51.3738 35.6358 50.9666 35.4666C50.7662 35.3812 50.551 35.3359 50.3333 35.3333H43.6666C43.2246 35.3333 42.8006 35.5089 42.4881 35.8214C42.1755 36.134 41.9999 36.5579 41.9999 37C41.9999 37.442 42.1755 37.8659 42.4881 38.1785C42.8006 38.491 43.2246 38.6666 43.6666 38.6666H46.3166L40.3333 44.65L38.1833 42.4833C38.0283 42.3271 37.844 42.2031 37.6409 42.1185C37.4378 42.0339 37.2199 41.9903 36.9999 41.9903C36.7799 41.9903 36.5621 42.0339 36.359 42.1185C36.1559 42.2031 35.9715 42.3271 35.8166 42.4833L25.8166 52.4833C25.6649 52.6418 25.5459 52.8287 25.4666 53.0333C25.2999 53.4391 25.2999 53.8942 25.4666 54.3C25.6357 54.7072 25.9593 55.0308 26.3666 55.2C26.567 55.2854 26.7821 55.3307 26.9999 55.3333H55.3333C56.2173 55.3333 57.0652 54.9821 57.6903 54.357C58.3154 53.7319 58.6666 52.884 58.6666 52V32C58.6666 31.1159 58.3154 30.2681 57.6903 29.6429C57.0652 29.0178 56.2173 28.6666 55.3333 28.6666Z" fill="#E1E1FF"/>
<defs>
<filter id="filter0_b_2004_21" x="-130" y="-130" width="344" height="344" filterUnits="userSpaceOnUse" color-interpolation-filters="sRGB">
<feFlood flood-opacity="0" result="BackgroundImageFix"/>
<feGaussianBlur in="BackgroundImageFix" stdDeviation="65"/>
<feComposite in2="SourceAlpha" operator="in" result="effect1_backgroundBlur_2004_21"/>
<feBlend mode="normal" in="SourceGraphic" in2="effect1_backgroundBlur_2004_21" result="shape"/>
</filter>
</defs>
</svg>
